<mxfile host="65bd71144e">
    <diagram id="main-diagram" name="Azure Infrastructure">
        <mxGraphModel dx="7919" dy="1720" grid="1" gridSize="10" guides="1" tooltips="1" connect="1" arrows="1" fold="1" page="1" pageScale="1" pageWidth="4681" pageHeight="3300" math="0" shadow="0">
            <root>
                <mxCell id="0"/>
                <mxCell id="1" parent="0"/>
                <object label="&lt;b&gt;Contoso Tenant Root&lt;/b&gt;" type="Microsoft.Management/managementGroups" id="node-0">
                    <mxCell style="image;aspect=fixed;html=1;points=[];align=center;fontSize=12;image=img/lib/azure2/general/Management_Groups.svg" parent="1" vertex="1">
                        <mxGeometry x="1186.4999999999995" y="1407" width="80" height="80" as="geometry"/>
                    </mxCell>
                </object>
                <object label="&lt;b&gt;Platform Services&lt;/b&gt;" type="Microsoft.Management/managementGroups" id="node-1">
                    <mxCell style="image;aspect=fixed;html=1;points=[];align=center;fontSize=12;image=img/lib/azure2/general/Management_Groups.svg" parent="1" vertex="1">
                        <mxGeometry x="1105.9999999999993" y="1206.0000000000002" width="80" height="80" as="geometry"/>
                    </mxCell>
                </object>
                <object label="&lt;b&gt;Application Workloads&lt;/b&gt;" type="Microsoft.Management/managementGroups" id="node-2">
                    <mxCell style="image;aspect=fixed;html=1;points=[];align=center;fontSize=12;image=img/lib/azure2/general/Management_Groups.svg" parent="1" vertex="1">
                        <mxGeometry x="1208.4999999999995" y="1005.0000000000006" width="80" height="80" as="geometry"/>
                    </mxCell>
                </object>
                <object label="&lt;b&gt;Sandbox Environment&lt;/b&gt;" type="Microsoft.Management/managementGroups" id="node-3">
                    <mxCell style="image;aspect=fixed;html=1;points=[];align=center;fontSize=12;image=img/lib/azure2/general/Management_Groups.svg" parent="1" vertex="1">
                        <mxGeometry x="1713.9511718749995" y="603.0000000000006" width="80" height="80" as="geometry"/>
                    </mxCell>
                </object>
                <object label="&lt;b&gt;Platform Shared Services&lt;/b&gt;" type="Microsoft.Resources/subscriptions" id="node-4">
                    <mxCell style="image;aspect=fixed;html=1;points=[];align=center;fontSize=12;image=img/lib/azure2/general/Subscriptions.svg" parent="1" vertex="1">
                        <mxGeometry x="1040.9999999999995" y="1005.0000000000006" width="80" height="80" as="geometry"/>
                    </mxCell>
                </object>
                <object label="&lt;b&gt;Production E-Commerce&lt;/b&gt;" type="Microsoft.Resources/subscriptions" id="node-5">
                    <mxCell style="image;aspect=fixed;html=1;points=[];align=center;fontSize=12;image=img/lib/azure2/general/Subscriptions.svg" parent="1" vertex="1">
                        <mxGeometry x="1173.4999999999995" y="804.0000000000007" width="80" height="80" as="geometry"/>
                    </mxCell>
                </object>
                <object label="&lt;b&gt;Production ERP&lt;/b&gt;" type="Microsoft.Resources/subscriptions" id="node-6">
                    <mxCell style="image;aspect=fixed;html=1;points=[];align=center;fontSize=12;image=img/lib/azure2/general/Subscriptions.svg" parent="1" vertex="1">
                        <mxGeometry x="1290.0000000000011" y="603.0000000000006" width="80" height="80" as="geometry"/>
                    </mxCell>
                </object>
                <object label="&lt;b&gt;Development Environment&lt;/b&gt;" type="Microsoft.Resources/subscriptions" id="node-7">
                    <mxCell style="image;aspect=fixed;html=1;points=[];align=center;fontSize=12;image=img/lib/azure2/general/Subscriptions.svg" parent="1" vertex="1">
                        <mxGeometry x="1920.4999999999995" y="402.00000000000034" width="80" height="80" as="geometry"/>
                    </mxCell>
                </object>
                <object label="&lt;b&gt;rg-shared-network&lt;/b&gt;" type="Microsoft.Resources/subscriptions/resourceGroups" id="node-8">
                    <mxCell style="image;aspect=fixed;html=1;points=[];align=center;fontSize=12;image=img/lib/azure2/general/Resource_Groups.svg" parent="1" vertex="1">
                        <mxGeometry x="723.1756630310142" y="804.0000000000006" width="80" height="80" as="geometry"/>
                    </mxCell>
                </object>
                <object label="&lt;b&gt;rg-shared-security&lt;/b&gt;" type="Microsoft.Resources/subscriptions/resourceGroups" id="node-9">
                    <mxCell style="image;aspect=fixed;html=1;points=[];align=center;fontSize=12;image=img/lib/azure2/general/Resource_Groups.svg" parent="1" vertex="1">
                        <mxGeometry x="935.4999999999998" y="201.0000000000001" width="80" height="80" as="geometry"/>
                    </mxCell>
                </object>
                <object label="&lt;b&gt;rg-shared-monitoring&lt;/b&gt;" type="Microsoft.Resources/subscriptions/resourceGroups" id="node-10">
                    <mxCell style="image;aspect=fixed;html=1;points=[];align=center;fontSize=12;image=img/lib/azure2/general/Resource_Groups.svg" parent="1" vertex="1">
                        <mxGeometry x="1753.4999999999995" y="402.0000000000002" width="80" height="80" as="geometry"/>
                    </mxCell>
                </object>
                <object label="&lt;b&gt;rg-ecom-frontend&lt;/b&gt;" type="Microsoft.Resources/subscriptions/resourceGroups" id="node-11">
                    <mxCell style="image;aspect=fixed;html=1;points=[];align=center;fontSize=12;image=img/lib/azure2/general/Resource_Groups.svg" parent="1" vertex="1">
                        <mxGeometry x="1010.7083333333335" y="603.0000000000005" width="80" height="80" as="geometry"/>
                    </mxCell>
                </object>
                <object label="&lt;b&gt;rg-ecom-backend&lt;/b&gt;" type="Microsoft.Resources/subscriptions/resourceGroups" id="node-12">
                    <mxCell style="image;aspect=fixed;html=1;points=[];align=center;fontSize=12;image=img/lib/azure2/general/Resource_Groups.svg" parent="1" vertex="1">
                        <mxGeometry x="1612.5" y="402.0000000000002" width="80" height="80" as="geometry"/>
                    </mxCell>
                </object>
                <object label="&lt;b&gt;rg-ecom-data&lt;/b&gt;" type="Microsoft.Resources/subscriptions/resourceGroups" id="node-13">
                    <mxCell style="image;aspect=fixed;html=1;points=[];align=center;fontSize=12;image=img/lib/azure2/general/Resource_Groups.svg" parent="1" vertex="1">
                        <mxGeometry x="1462.5" y="402.0000000000002" width="80" height="80" as="geometry"/>
                    </mxCell>
                </object>
                <object label="&lt;b&gt;rg-erp-app&lt;/b&gt;" type="Microsoft.Resources/subscriptions/resourceGroups" id="node-14">
                    <mxCell style="image;aspect=fixed;html=1;points=[];align=center;fontSize=12;image=img/lib/azure2/general/Resource_Groups.svg" parent="1" vertex="1">
                        <mxGeometry x="1322.5" y="402.0000000000002" width="80" height="80" as="geometry"/>
                    </mxCell>
                </object>
                <object label="&lt;b&gt;rg-erp-database&lt;/b&gt;" type="Microsoft.Resources/subscriptions/resourceGroups" id="node-15">
                    <mxCell style="image;aspect=fixed;html=1;points=[];align=center;fontSize=12;image=img/lib/azure2/general/Resource_Groups.svg" parent="1" vertex="1">
                        <mxGeometry x="1346.5000000000007" y="201.0000000000001" width="80" height="80" as="geometry"/>
                    </mxCell>
                </object>
                <object label="&lt;b&gt;rg-dev-apps&lt;/b&gt;" type="Microsoft.Resources/subscriptions/resourceGroups" id="node-16">
                    <mxCell style="image;aspect=fixed;html=1;points=[];align=center;fontSize=12;image=img/lib/azure2/general/Resource_Groups.svg" parent="1" vertex="1">
                        <mxGeometry x="1971.9999999999993" y="201.0000000000001" width="80" height="80" as="geometry"/>
                    </mxCell>
                </object>
                <object label="&lt;b&gt;vnet-hub&lt;/b&gt;" type="Microsoft.Network/virtualNetworks" id="node-17">
                    <mxCell style="image;aspect=fixed;html=1;points=[];align=center;fontSize=12;image=img/lib/azure2/networking/Virtual_Networks.svg" parent="1" vertex="1">
                        <mxGeometry x="659.6107956372172" y="603.0000000000005" width="80" height="80" as="geometry"/>
                    </mxCell>
                </object>
                <object label="&lt;b&gt;GatewaySubnet&lt;/b&gt;" type="Microsoft.Network/virtualNetworks/subnets" id="node-18">
                    <mxCell style="image;aspect=fixed;html=1;points=[];align=center;fontSize=12;image=img/lib/azure2/networking/Subnet.svg" parent="1" vertex="1">
                        <mxGeometry x="320.5000000000002" y="402.0000000000002" width="80" height="80" as="geometry"/>
                    </mxCell>
                </object>
                <object label="&lt;b&gt;AzureFirewallSubnet&lt;/b&gt;" type="Microsoft.Network/virtualNetworks/subnets" id="node-19">
                    <mxCell style="image;aspect=fixed;html=1;points=[];align=center;fontSize=12;image=img/lib/azure2/networking/Subnet.svg" parent="1" vertex="1">
                        <mxGeometry x="455.00000000000045" y="402.0000000000002" width="80" height="80" as="geometry"/>
                    </mxCell>
                </object>
                <object label="&lt;b&gt;subnet-shared-services&lt;/b&gt;" type="Microsoft.Network/virtualNetworks/subnets" id="node-20">
                    <mxCell style="image;aspect=fixed;html=1;points=[];align=center;fontSize=12;image=img/lib/azure2/networking/Subnet.svg" parent="1" vertex="1">
                        <mxGeometry x="612.0000000000001" y="402.0000000000002" width="80" height="80" as="geometry"/>
                    </mxCell>
                </object>
                <object label="&lt;b&gt;vnet-ecommerce&lt;/b&gt;" type="Microsoft.Network/virtualNetworks" id="node-21">
                    <mxCell style="image;aspect=fixed;html=1;points=[];align=center;fontSize=12;image=img/lib/azure2/networking/Virtual_Networks.svg" parent="1" vertex="1">
                        <mxGeometry x="941.0000000000006" y="402.0000000000002" width="80" height="80" as="geometry"/>
                    </mxCell>
                </object>
                <object label="&lt;b&gt;subnet-web-tier&lt;/b&gt;" type="Microsoft.Network/virtualNetworks/subnets" id="node-22">
                    <mxCell style="image;aspect=fixed;html=1;points=[];align=center;fontSize=12;image=img/lib/azure2/networking/Subnet.svg" parent="1" vertex="1">
                        <mxGeometry x="34.5000000000002" y="201.0000000000001" width="80" height="80" as="geometry"/>
                    </mxCell>
                </object>
                <object label="&lt;b&gt;subnet-api-tier&lt;/b&gt;" type="Microsoft.Network/virtualNetworks/subnets" id="node-23">
                    <mxCell style="image;aspect=fixed;html=1;points=[];align=center;fontSize=12;image=img/lib/azure2/networking/Subnet.svg" parent="1" vertex="1">
                        <mxGeometry x="150.5000000000008" y="201.0000000000001" width="80" height="80" as="geometry"/>
                    </mxCell>
                </object>
                <object label="&lt;b&gt;subnet-data-tier&lt;/b&gt;" type="Microsoft.Network/virtualNetworks/subnets" id="node-24">
                    <mxCell style="image;aspect=fixed;html=1;points=[];align=center;fontSize=12;image=img/lib/azure2/networking/Subnet.svg" parent="1" vertex="1">
                        <mxGeometry x="267.500000000001" y="201.0000000000001" width="80" height="80" as="geometry"/>
                    </mxCell>
                </object>
                <object label="&lt;b&gt;vpn-gateway-main&lt;/b&gt;" type="Microsoft.Network/virtualNetworkGateways" id="node-25">
                    <mxCell style="image;aspect=fixed;html=1;points=[];align=center;fontSize=12;image=img/lib/azure2/networking/Virtual_Network_Gateways.svg" parent="1" vertex="1">
                        <mxGeometry x="813.3659095293211" y="603.0000000000005" width="80" height="80" as="geometry"/>
                    </mxCell>
                </object>
                <object label="&lt;b&gt;fw-hub-main&lt;/b&gt;" type="Microsoft.Network/azureFirewalls" id="node-26">
                    <mxCell style="image;aspect=fixed;html=1;points=[];align=center;fontSize=12;image=img/lib/azure2/networking/Azure_Firewall.svg" parent="1" vertex="1">
                        <mxGeometry x="1124.4999999999993" y="7.105427357601002e-15" width="80" height="80" as="geometry"/>
                    </mxCell>
                </object>
                <object label="&lt;b&gt;agw-ecommerce&lt;/b&gt;" type="Microsoft.Network/applicationGateways" id="node-27">
                    <mxCell style="image;aspect=fixed;html=1;points=[];align=center;fontSize=12;image=img/lib/azure2/networking/Application_Gateways.svg" parent="1" vertex="1">
                        <mxGeometry x="786.5000000000003" y="402.0000000000002" width="80" height="80" as="geometry"/>
                    </mxCell>
                </object>
                <object label="&lt;b&gt;lb-api-internal&lt;/b&gt;" type="Microsoft.Network/loadBalancers" id="node-28">
                    <mxCell style="image;aspect=fixed;html=1;points=[];align=center;fontSize=12;image=img/lib/azure2/networking/Load_Balancers.svg" parent="1" vertex="1">
                        <mxGeometry x="382.9999999999998" y="201.0000000000001" width="80" height="80" as="geometry"/>
                    </mxCell>
                </object>
                <object label="&lt;b&gt;nsg-web-tier&lt;/b&gt;" type="Microsoft.Network/networkSecurityGroups" id="node-29">
                    <mxCell style="image;aspect=fixed;html=1;points=[];align=center;fontSize=12;image=img/lib/azure2/networking/Network_Security_Groups.svg" parent="1" vertex="1">
                        <mxGeometry x="-2.7499999999999005" y="7.105427357601002e-15" width="80" height="80" as="geometry"/>
                    </mxCell>
                </object>
                <object label="&lt;b&gt;nsg-api-tier&lt;/b&gt;" type="Microsoft.Network/networkSecurityGroups" id="node-30">
                    <mxCell style="image;aspect=fixed;html=1;points=[];align=center;fontSize=12;image=img/lib/azure2/networking/Network_Security_Groups.svg" parent="1" vertex="1">
                        <mxGeometry x="181.50000000000068" y="7.105427357601002e-15" width="80" height="80" as="geometry"/>
                    </mxCell>
                </object>
                <object label="&lt;b&gt;nsg-data-tier&lt;/b&gt;" type="Microsoft.Network/networkSecurityGroups" id="node-31">
                    <mxCell style="image;aspect=fixed;html=1;points=[];align=center;fontSize=12;image=img/lib/azure2/networking/Network_Security_Groups.svg" parent="1" vertex="1">
                        <mxGeometry x="291.5000000000007" y="7.105427357601002e-15" width="80" height="80" as="geometry"/>
                    </mxCell>
                </object>
                <object label="&lt;b&gt;vmss-web-frontend&lt;/b&gt;" type="Microsoft.Compute/virtualMachineScaleSets" id="node-32">
                    <mxCell style="image;aspect=fixed;html=1;points=[];align=center;fontSize=12;image=img/lib/azure2/compute/Virtual_Machine_Scale_Set.svg" parent="1" vertex="1">
                        <mxGeometry x="1074.0000000000002" y="402.0000000000002" width="80" height="80" as="geometry"/>
                    </mxCell>
                </object>
                <object label="&lt;b&gt;vmss-api-backend&lt;/b&gt;" type="Microsoft.Compute/virtualMachineScaleSets" id="node-33">
                    <mxCell style="image;aspect=fixed;html=1;points=[];align=center;fontSize=12;image=img/lib/azure2/compute/Virtual_Machine_Scale_Set.svg" parent="1" vertex="1">
                        <mxGeometry x="1474.4999999999993" y="201.0000000000001" width="80" height="80" as="geometry"/>
                    </mxCell>
                </object>
                <object label="&lt;b&gt;vm-erp-app01&lt;/b&gt;" type="Microsoft.Compute/virtualMachines" id="node-34">
                    <mxCell style="image;aspect=fixed;html=1;points=[];align=center;fontSize=12;image=img/lib/azure2/compute/Virtual_Machine.svg" parent="1" vertex="1">
                        <mxGeometry x="582.9999999999998" y="201.0000000000001" width="80" height="80" as="geometry"/>
                    </mxCell>
                </object>
                <object label="&lt;b&gt;vm-erp-app02&lt;/b&gt;" type="Microsoft.Compute/virtualMachines" id="node-35">
                    <mxCell style="image;aspect=fixed;html=1;points=[];align=center;fontSize=12;image=img/lib/azure2/compute/Virtual_Machine.svg" parent="1" vertex="1">
                        <mxGeometry x="752.9999999999998" y="201.0000000000001" width="80" height="80" as="geometry"/>
                    </mxCell>
                </object>
                <object label="&lt;b&gt;vm-erp-app01-osdisk&lt;/b&gt;" type="Microsoft.Compute/disks" id="node-36">
                    <mxCell style="image;aspect=fixed;html=1;points=[];align=center;fontSize=12;image=img/lib/azure2/compute/Disks.svg" parent="1" vertex="1">
                        <mxGeometry x="422.0000000000015" y="7.105427357601002e-15" width="80" height="80" as="geometry"/>
                    </mxCell>
                </object>
                <object label="&lt;b&gt;vm-erp-app01-datadisk&lt;/b&gt;" type="Microsoft.Compute/disks" id="node-37">
                    <mxCell style="image;aspect=fixed;html=1;points=[];align=center;fontSize=12;image=img/lib/azure2/compute/Disks.svg" parent="1" vertex="1">
                        <mxGeometry x="578.000000000001" y="7.105427357601002e-15" width="80" height="80" as="geometry"/>
                    </mxCell>
                </object>
                <object label="&lt;b&gt;vm-erp-app02-osdisk&lt;/b&gt;" type="Microsoft.Compute/disks" id="node-38">
                    <mxCell style="image;aspect=fixed;html=1;points=[];align=center;fontSize=12;image=img/lib/azure2/compute/Disks.svg" parent="1" vertex="1">
                        <mxGeometry x="734.0000000000006" y="7.105427357601002e-15" width="80" height="80" as="geometry"/>
                    </mxCell>
                </object>
                <object label="&lt;b&gt;vm-erp-app01-nic&lt;/b&gt;" type="Microsoft.Network/networkInterfaces" id="node-39">
                    <mxCell style="image;aspect=fixed;html=1;points=[];align=center;fontSize=12;image=img/lib/azure2/networking/Network_Interfaces.svg" parent="1" vertex="1">
                        <mxGeometry x="874.4999999999993" y="7.105427357601002e-15" width="80" height="80" as="geometry"/>
                    </mxCell>
                </object>
                <object label="&lt;b&gt;vm-erp-app02-nic&lt;/b&gt;" type="Microsoft.Network/networkInterfaces" id="node-40">
                    <mxCell style="image;aspect=fixed;html=1;points=[];align=center;fontSize=12;image=img/lib/azure2/networking/Network_Interfaces.svg" parent="1" vertex="1">
                        <mxGeometry x="1004.4999999999993" y="7.105427357601002e-15" width="80" height="80" as="geometry"/>
                    </mxCell>
                </object>
                <object label="&lt;b&gt;sql-ecom-prod&lt;/b&gt;" type="Microsoft.Sql/servers" id="node-41">
                    <mxCell style="image;aspect=fixed;html=1;points=[];align=center;fontSize=12;image=img/lib/azure2/databases/SQL_Server.svg" parent="1" vertex="1">
                        <mxGeometry x="1089.5000000000002" y="201.0000000000001" width="80" height="80" as="geometry"/>
                    </mxCell>
                </object>
                <object label="&lt;b&gt;db-ecommerce-main&lt;/b&gt;" type="Microsoft.Sql/servers/databases" id="node-42">
                    <mxCell style="image;aspect=fixed;html=1;points=[];align=center;fontSize=12;image=img/lib/azure2/databases/SQL_Database.svg" parent="1" vertex="1">
                        <mxGeometry x="1385.9999999999989" y="7.105427357601002e-15" width="80" height="80" as="geometry"/>
                    </mxCell>
                </object>
                <object label="&lt;b&gt;db-ecommerce-analytics&lt;/b&gt;" type="Microsoft.Sql/servers/databases" id="node-43">
                    <mxCell style="image;aspect=fixed;html=1;points=[];align=center;fontSize=12;image=img/lib/azure2/databases/SQL_Database.svg" parent="1" vertex="1">
                        <mxGeometry x="1544.9999999999993" y="7.105427357601002e-15" width="80" height="80" as="geometry"/>
                    </mxCell>
                </object>
                <object label="&lt;b&gt;psql-erp-prod&lt;/b&gt;" type="Microsoft.DBforPostgreSQL/flexibleServers" id="node-44">
                    <mxCell style="rounded=1;whiteSpace=wrap;html=1;shadow=1;fillColor=#dae8fc;strokeColor=#6c8ebf;" parent="1" vertex="1">
                        <mxGeometry x="1685.499999999998" y="10.500000000000057" width="80" height="80" as="geometry"/>
                    </mxCell>
                </object>
                <object label="&lt;b&gt;cosmos-ecom-sessions&lt;/b&gt;" type="Microsoft.DocumentDB/databaseAccounts" id="node-45">
                    <mxCell style="rounded=1;whiteSpace=wrap;html=1;shadow=1;fillColor=#dae8fc;strokeColor=#6c8ebf;" parent="1" vertex="1">
                        <mxGeometry x="1230.9999999999998" y="211.50000000000017" width="80" height="80" as="geometry"/>
                    </mxCell>
                </object>
                <object label="&lt;b&gt;stecomprod001&lt;/b&gt;" type="Microsoft.Storage/storageAccounts" id="node-46">
                    <mxCell style="image;aspect=fixed;html=1;points=[];align=center;fontSize=12;image=img/lib/azure2/storage/Storage_Accounts.svg" parent="1" vertex="1">
                        <mxGeometry x="2086.499999999998" y="201.0000000000001" width="80" height="80" as="geometry"/>
                    </mxCell>
                </object>
                <object label="&lt;b&gt;stecomstatic001&lt;/b&gt;" type="Microsoft.Storage/storageAccounts" id="node-47">
                    <mxCell style="image;aspect=fixed;html=1;points=[];align=center;fontSize=12;image=img/lib/azure2/storage/Storage_Accounts.svg" parent="1" vertex="1">
                        <mxGeometry x="1206.0000000000005" y="402.0000000000002" width="80" height="80" as="geometry"/>
                    </mxCell>
                </object>
                <object label="&lt;b&gt;stsharedlogs001&lt;/b&gt;" type="Microsoft.Storage/storageAccounts" id="node-48">
                    <mxCell style="image;aspect=fixed;html=1;points=[];align=center;fontSize=12;image=img/lib/azure2/storage/Storage_Accounts.svg" parent="1" vertex="1">
                        <mxGeometry x="1854.4999999999993" y="201.0000000000001" width="80" height="80" as="geometry"/>
                    </mxCell>
                </object>
                <object label="&lt;b&gt;asp-ecom-api&lt;/b&gt;" type="Microsoft.Web/serverfarms" id="node-49">
                    <mxCell style="image;aspect=fixed;html=1;points=[];align=center;fontSize=12;image=img/lib/azure2/app_services/App_Service_Plans.svg" parent="1" vertex="1">
                        <mxGeometry x="1626.9999999999993" y="201.0000000000001" width="80" height="80" as="geometry"/>
                    </mxCell>
                </object>
                <object label="&lt;b&gt;app-ecom-api&lt;/b&gt;" type="Microsoft.Web/sites" id="node-50">
                    <mxCell style="image;aspect=fixed;html=1;points=[];align=center;fontSize=12;image=img/lib/azure2/compute/App_Services.svg" parent="1" vertex="1">
                        <mxGeometry x="1795.499999999998" y="7.105427357601002e-15" width="80" height="80" as="geometry"/>
                    </mxCell>
                </object>
                <object label="&lt;b&gt;app-dev-prototype&lt;/b&gt;" type="Microsoft.Web/sites" id="node-51">
                    <mxCell style="image;aspect=fixed;html=1;points=[];align=center;fontSize=12;image=img/lib/azure2/compute/App_Services.svg" parent="1" vertex="1">
                        <mxGeometry x="1917.999999999998" y="7.105427357601002e-15" width="80" height="80" as="geometry"/>
                    </mxCell>
                </object>
                <object label="&lt;b&gt;func-ecom-processing&lt;/b&gt;" type="Microsoft.Web/sites" id="node-52">
                    <mxCell style="image;aspect=fixed;html=1;points=[];align=center;fontSize=12;image=img/lib/azure2/compute/App_Services.svg" parent="1" vertex="1">
                        <mxGeometry x="2064.999999999998" y="7.105427357601002e-15" width="80" height="80" as="geometry"/>
                    </mxCell>
                </object>
                <object label="&lt;b&gt;kv-shared-secrets&lt;/b&gt;" type="Microsoft.KeyVault/vaults" id="node-53">
                    <mxCell style="image;aspect=fixed;html=1;points=[];align=center;fontSize=12;image=img/lib/azure2/security/Key_Vaults.svg" parent="1" vertex="1">
                        <mxGeometry x="1245.9999999999998" y="7.105427357601002e-15" width="80" height="80" as="geometry"/>
                    </mxCell>
                </object>
                <object label="&lt;b&gt;kv-ecom-prod&lt;/b&gt;" type="Microsoft.KeyVault/vaults" id="node-54">
                    <mxCell style="image;aspect=fixed;html=1;points=[];align=center;fontSize=12;image=img/lib/azure2/security/Key_Vaults.svg" parent="1" vertex="1">
                        <mxGeometry x="1736.9999999999993" y="201.0000000000001" width="80" height="80" as="geometry"/>
                    </mxCell>
                </object>
                <object label="&lt;b&gt;law-central-logs&lt;/b&gt;" type="Microsoft.OperationalInsights/workspaces" id="node-55">
                    <mxCell style="image;aspect=fixed;html=1;points=[];align=center;fontSize=12;image=img/lib/azure2/analytics/Log_Analytics_Workspaces.svg" parent="1" vertex="1">
                        <mxGeometry x="2266.499999999999" y="201.0000000000001" width="80" height="80" as="geometry"/>
                    </mxCell>
                </object>
                <object label="&lt;b&gt;appi-ecom-api&lt;/b&gt;" type="Microsoft.Insights/components" id="node-56">
                    <mxCell style="image;aspect=fixed;html=1;points=[];align=center;fontSize=12;image=img/lib/azure2/management_governance/Application_Insights.svg" parent="1" vertex="1">
                        <mxGeometry x="2228.749999999999" y="7.105427357601002e-15" width="80" height="80" as="geometry"/>
                    </mxCell>
                </object>
                <mxCell id="edge-0" style="edgeStyle=orthogonalEdgeStyle;rounded=0;orthogonalLoop=1;jettySize=auto;html=1;endArrow=classic;strokeColor=#1976d2;strokeWidth=2;noEdgeStyle=1;orthogonal=1;" parent="1" source="node-1" target="node-0" edge="1">
                    <mxGeometry relative="1" as="geometry">
                        <Array as="points">
                            <mxPoint x="1145.9999999999995" y="1319"/>
                            <mxPoint x="1189.4999999999998" y="1395"/>
                        </Array>
                    </mxGeometry>
                </mxCell>
                <mxCell id="edge-1" style="edgeStyle=orthogonalEdgeStyle;rounded=0;orthogonalLoop=1;jettySize=auto;html=1;endArrow=classic;strokeColor=#1976d2;strokeWidth=2;noEdgeStyle=1;orthogonal=1;" parent="1" source="node-2" target="node-0" edge="1">
                    <mxGeometry relative="1" as="geometry">
                        <Array as="points">
                            <mxPoint x="1248.4999999999995" y="1118.0000000000005"/>
                            <mxPoint x="1226.4999999999995" y="1156.0000000000005"/>
                            <mxPoint x="1226.4999999999995" y="1357"/>
                            <mxPoint x="1226.4999999999995" y="1393"/>
                        </Array>
                    </mxGeometry>
                </mxCell>
                <mxCell id="edge-2" style="edgeStyle=orthogonalEdgeStyle;rounded=0;orthogonalLoop=1;jettySize=auto;html=1;endArrow=classic;strokeColor=#1976d2;strokeWidth=2;noEdgeStyle=1;orthogonal=1;" parent="1" source="node-3" target="node-0" edge="1">
                    <mxGeometry relative="1" as="geometry">
                        <Array as="points">
                            <mxPoint x="1753.9511718749995" y="716.0000000000006"/>
                            <mxPoint x="1548.7255859374995" y="754.0000000000006"/>
                            <mxPoint x="1548.7255859374995" y="955.0000000000007"/>
                            <mxPoint x="1548.7255859374995" y="955.0000000000007"/>
                            <mxPoint x="1548.7255859374995" y="1156.0000000000005"/>
                            <mxPoint x="1548.7255859374995" y="1156.0000000000005"/>
                            <mxPoint x="1548.7255859374995" y="1357"/>
                            <mxPoint x="1263.4999999999993" y="1395"/>
                        </Array>
                    </mxGeometry>
                </mxCell>
                <mxCell id="edge-3" style="edgeStyle=orthogonalEdgeStyle;rounded=0;orthogonalLoop=1;jettySize=auto;html=1;endArrow=classic;strokeColor=#1976d2;strokeWidth=2;noEdgeStyle=1;orthogonal=1;" parent="1" source="node-4" target="node-1" edge="1">
                    <mxGeometry relative="1" as="geometry">
                        <Array as="points">
                            <mxPoint x="1080.9999999999995" y="1118.0000000000005"/>
                            <mxPoint x="1145.9999999999995" y="1194.0000000000002"/>
                        </Array>
                    </mxGeometry>
                </mxCell>
                <mxCell id="edge-4" style="edgeStyle=orthogonalEdgeStyle;rounded=0;orthogonalLoop=1;jettySize=auto;html=1;endArrow=classic;strokeColor=#1976d2;strokeWidth=2;noEdgeStyle=1;orthogonal=1;" parent="1" source="node-5" target="node-2" edge="1">
                    <mxGeometry relative="1" as="geometry">
                        <Array as="points">
                            <mxPoint x="1213.4999999999995" y="917.0000000000007"/>
                            <mxPoint x="1218.4999999999995" y="993.0000000000006"/>
                        </Array>
                    </mxGeometry>
                </mxCell>
                <mxCell id="edge-5" style="edgeStyle=orthogonalEdgeStyle;rounded=0;orthogonalLoop=1;jettySize=auto;html=1;endArrow=classic;strokeColor=#1976d2;strokeWidth=2;noEdgeStyle=1;orthogonal=1;" parent="1" source="node-6" target="node-2" edge="1">
                    <mxGeometry relative="1" as="geometry">
                        <Array as="points">
                            <mxPoint x="1330" y="716.0000000000006"/>
                            <mxPoint x="1313.9999999999993" y="754.0000000000006"/>
                            <mxPoint x="1313.9999999999993" y="955.0000000000007"/>
                            <mxPoint x="1278.4999999999995" y="993.0000000000006"/>
                        </Array>
                    </mxGeometry>
                </mxCell>
                <mxCell id="edge-6" style="edgeStyle=orthogonalEdgeStyle;rounded=0;orthogonalLoop=1;jettySize=auto;html=1;endArrow=classic;strokeColor=#1976d2;strokeWidth=2;noEdgeStyle=1;orthogonal=1;" parent="1" source="node-7" target="node-3" edge="1">
                    <mxGeometry relative="1" as="geometry">
                        <Array as="points">
                            <mxPoint x="1960.4999999999995" y="515.0000000000003"/>
                            <mxPoint x="1753.9511718749995" y="591.0000000000005"/>
                        </Array>
                    </mxGeometry>
                </mxCell>
                <mxCell id="edge-7" style="edgeStyle=orthogonalEdgeStyle;rounded=0;orthogonalLoop=1;jettySize=auto;html=1;endArrow=classic;strokeColor=#1976d2;strokeWidth=2;noEdgeStyle=1;orthogonal=1;" parent="1" source="node-8" target="node-4" edge="1">
                    <mxGeometry relative="1" as="geometry">
                        <Array as="points">
                            <mxPoint x="763.1756630310142" y="917.0000000000007"/>
                            <mxPoint x="1035.9999999999995" y="993.0000000000006"/>
                        </Array>
                    </mxGeometry>
                </mxCell>
                <mxCell id="edge-8" style="edgeStyle=orthogonalEdgeStyle;rounded=0;orthogonalLoop=1;jettySize=auto;html=1;endArrow=classic;strokeColor=#1976d2;strokeWidth=2;noEdgeStyle=1;orthogonal=1;" parent="1" source="node-9" target="node-4" edge="1">
                    <mxGeometry relative="1" as="geometry">
                        <Array as="points">
                            <mxPoint x="975.4999999999998" y="314.0000000000002"/>
                            <mxPoint x="1432.5" y="352.0000000000002"/>
                            <mxPoint x="1432.5" y="553.0000000000005"/>
                            <mxPoint x="1224.5000000000002" y="553.0000000000005"/>
                            <mxPoint x="1224.5000000000002" y="754.0000000000006"/>
                            <mxPoint x="1112.9999999999998" y="754.0000000000006"/>
                            <mxPoint x="1112.9999999999998" y="955.0000000000007"/>
                            <mxPoint x="1080.9999999999995" y="991.0000000000006"/>
                        </Array>
                    </mxGeometry>
                </mxCell>
                <mxCell id="edge-9" style="edgeStyle=orthogonalEdgeStyle;rounded=0;orthogonalLoop=1;jettySize=auto;html=1;endArrow=classic;strokeColor=#1976d2;strokeWidth=2;noEdgeStyle=1;orthogonal=1;" parent="1" source="node-10" target="node-4" edge="1">
                    <mxGeometry relative="1" as="geometry">
                        <Array as="points">
                            <mxPoint x="1793.5" y="515.0000000000003"/>
                            <mxPoint x="1435.4999999999998" y="553.0000000000005"/>
                            <mxPoint x="1435.4999999999998" y="754.0000000000006"/>
                            <mxPoint x="1435.4999999999998" y="754.0000000000006"/>
                            <mxPoint x="1435.4999999999998" y="955.0000000000007"/>
                            <mxPoint x="1125.9999999999995" y="993.0000000000006"/>
                        </Array>
                    </mxGeometry>
                </mxCell>
                <mxCell id="edge-10" style="edgeStyle=orthogonalEdgeStyle;rounded=0;orthogonalLoop=1;jettySize=auto;html=1;endArrow=classic;strokeColor=#1976d2;strokeWidth=2;noEdgeStyle=1;orthogonal=1;" parent="1" source="node-11" target="node-5" edge="1">
                    <mxGeometry relative="1" as="geometry">
                        <Array as="points">
                            <mxPoint x="1050.7083333333335" y="716.0000000000006"/>
                            <mxPoint x="1169.833333333333" y="792.0000000000006"/>
                        </Array>
                    </mxGeometry>
                </mxCell>
                <mxCell id="edge-11" style="edgeStyle=orthogonalEdgeStyle;rounded=0;orthogonalLoop=1;jettySize=auto;html=1;endArrow=classic;strokeColor=#1976d2;strokeWidth=2;noEdgeStyle=1;orthogonal=1;" parent="1" source="node-12" target="node-5" edge="1">
                    <mxGeometry relative="1" as="geometry">
                        <Array as="points">
                            <mxPoint x="1652.5" y="515.0000000000003"/>
                            <mxPoint x="1405.4999999999998" y="553.0000000000005"/>
                            <mxPoint x="1405.4999999999998" y="754.0000000000006"/>
                            <mxPoint x="1257.166666666666" y="792.0000000000006"/>
                        </Array>
                    </mxGeometry>
                </mxCell>
                <mxCell id="edge-12" style="edgeStyle=orthogonalEdgeStyle;rounded=0;orthogonalLoop=1;jettySize=auto;html=1;endArrow=classic;strokeColor=#1976d2;strokeWidth=2;noEdgeStyle=1;orthogonal=1;" parent="1" source="node-13" target="node-5" edge="1">
                    <mxGeometry relative="1" as="geometry">
                        <Array as="points">
                            <mxPoint x="1502.5" y="515.0000000000003"/>
                            <mxPoint x="1254.5000000000002" y="553.0000000000005"/>
                            <mxPoint x="1254.5000000000002" y="754.0000000000006"/>
                            <mxPoint x="1213.4999999999995" y="790.0000000000006"/>
                        </Array>
                    </mxGeometry>
                </mxCell>
                <mxCell id="edge-13" style="edgeStyle=orthogonalEdgeStyle;rounded=0;orthogonalLoop=1;jettySize=auto;html=1;endArrow=classic;strokeColor=#1976d2;strokeWidth=2;noEdgeStyle=1;orthogonal=1;" parent="1" source="node-14" target="node-6" edge="1">
                    <mxGeometry relative="1" as="geometry">
                        <Array as="points">
                            <mxPoint x="1362.5" y="515.0000000000003"/>
                            <mxPoint x="1309.75" y="591.0000000000005"/>
                        </Array>
                    </mxGeometry>
                </mxCell>
                <mxCell id="edge-14" style="edgeStyle=orthogonalEdgeStyle;rounded=0;orthogonalLoop=1;jettySize=auto;html=1;endArrow=classic;strokeColor=#1976d2;strokeWidth=2;noEdgeStyle=1;orthogonal=1;" parent="1" source="node-15" target="node-6" edge="1">
                    <mxGeometry relative="1" as="geometry">
                        <Array as="points">
                            <mxPoint x="1386.4999999999995" y="314.0000000000002"/>
                            <mxPoint x="1572.5" y="352.0000000000002"/>
                            <mxPoint x="1572.5" y="553.0000000000005"/>
                            <mxPoint x="1350.2499999999998" y="591.0000000000005"/>
                        </Array>
                    </mxGeometry>
                </mxCell>
                <mxCell id="edge-15" style="edgeStyle=orthogonalEdgeStyle;rounded=0;orthogonalLoop=1;jettySize=auto;html=1;endArrow=classic;strokeColor=#1976d2;strokeWidth=2;noEdgeStyle=1;orthogonal=1;" parent="1" source="node-16" target="node-7" edge="1">
                    <mxGeometry relative="1" as="geometry">
                        <Array as="points">
                            <mxPoint x="2011.999999999999" y="314.0000000000002"/>
                            <mxPoint x="1960.4999999999995" y="390.0000000000002"/>
                        </Array>
                    </mxGeometry>
                </mxCell>
                <mxCell id="edge-16" style="edgeStyle=orthogonalEdgeStyle;rounded=0;orthogonalLoop=1;jettySize=auto;html=1;endArrow=classic;strokeColor=#1976d2;strokeWidth=2;noEdgeStyle=1;orthogonal=1;" parent="1" source="node-17" target="node-8" edge="1">
                    <mxGeometry relative="1" as="geometry">
                        <Array as="points">
                            <mxPoint x="699.6107956372172" y="716.0000000000006"/>
                            <mxPoint x="763.1756630310142" y="788.0000000000006"/>
                        </Array>
                    </mxGeometry>
                </mxCell>
                <mxCell id="edge-17" style="edgeStyle=orthogonalEdgeStyle;rounded=0;orthogonalLoop=1;jettySize=auto;html=1;endArrow=classic;strokeColor=#1976d2;strokeWidth=2;noEdgeStyle=1;orthogonal=1;" parent="1" source="node-25" target="node-8" edge="1">
                    <mxGeometry relative="1" as="geometry">
                        <Array as="points">
                            <mxPoint x="853.3659095293211" y="716.0000000000006"/>
                            <mxPoint x="801.1756630310142" y="792.0000000000006"/>
                        </Array>
                    </mxGeometry>
                </mxCell>
                <mxCell id="edge-18" style="edgeStyle=orthogonalEdgeStyle;rounded=0;orthogonalLoop=1;jettySize=auto;html=1;endArrow=classic;strokeColor=#1976d2;strokeWidth=2;noEdgeStyle=1;orthogonal=1;" parent="1" source="node-26" target="node-9" edge="1">
                    <mxGeometry relative="1" as="geometry">
                        <Array as="points">
                            <mxPoint x="1164.4999999999993" y="113.00000000000011"/>
                            <mxPoint x="951.7499999999998" y="189.0000000000001"/>
                        </Array>
                    </mxGeometry>
                </mxCell>
                <mxCell id="edge-19" style="edgeStyle=orthogonalEdgeStyle;rounded=0;orthogonalLoop=1;jettySize=auto;html=1;endArrow=classic;strokeColor=#1976d2;strokeWidth=2;noEdgeStyle=1;orthogonal=1;" parent="1" source="node-53" target="node-9" edge="1">
                    <mxGeometry relative="1" as="geometry">
                        <Array as="points">
                            <mxPoint x="1285.999999999999" y="113.00000000000011"/>
                            <mxPoint x="999.2499999999998" y="189.0000000000001"/>
                        </Array>
                    </mxGeometry>
                </mxCell>
                <mxCell id="edge-20" style="edgeStyle=orthogonalEdgeStyle;rounded=0;orthogonalLoop=1;jettySize=auto;html=1;endArrow=classic;strokeColor=#1976d2;strokeWidth=2;noEdgeStyle=1;orthogonal=1;" parent="1" source="node-55" target="node-10" edge="1">
                    <mxGeometry relative="1" as="geometry">
                        <Array as="points">
                            <mxPoint x="2306.499999999999" y="314.0000000000002"/>
                            <mxPoint x="1821.5" y="390.0000000000002"/>
                        </Array>
                    </mxGeometry>
                </mxCell>
                <mxCell id="edge-21" style="edgeStyle=orthogonalEdgeStyle;rounded=0;orthogonalLoop=1;jettySize=auto;html=1;endArrow=classic;strokeColor=#1976d2;strokeWidth=2;noEdgeStyle=1;orthogonal=1;" parent="1" source="node-48" target="node-10" edge="1">
                    <mxGeometry relative="1" as="geometry">
                        <Array as="points">
                            <mxPoint x="1894.4999999999993" y="314.0000000000002"/>
                            <mxPoint x="1765.5" y="390.0000000000002"/>
                        </Array>
                    </mxGeometry>
                </mxCell>
                <mxCell id="edge-22" style="edgeStyle=orthogonalEdgeStyle;rounded=0;orthogonalLoop=1;jettySize=auto;html=1;endArrow=classic;strokeColor=#1976d2;strokeWidth=2;noEdgeStyle=1;orthogonal=1;" parent="1" source="node-21" target="node-11" edge="1">
                    <mxGeometry relative="1" as="geometry">
                        <Array as="points">
                            <mxPoint x="1002.2500000000005" y="515.0000000000003"/>
                            <mxPoint x="1058.2083333333335" y="587.0000000000005"/>
                        </Array>
                    </mxGeometry>
                </mxCell>
                <mxCell id="edge-23" style="edgeStyle=orthogonalEdgeStyle;rounded=0;orthogonalLoop=1;jettySize=auto;html=1;endArrow=classic;strokeColor=#1976d2;strokeWidth=2;noEdgeStyle=1;orthogonal=1;" parent="1" source="node-27" target="node-11" edge="1">
                    <mxGeometry relative="1" as="geometry">
                        <Array as="points">
                            <mxPoint x="826.5000000000002" y="515.0000000000003"/>
                            <mxPoint x="1028.2083333333335" y="589.0000000000005"/>
                        </Array>
                    </mxGeometry>
                </mxCell>
                <mxCell id="edge-24" style="edgeStyle=orthogonalEdgeStyle;rounded=0;orthogonalLoop=1;jettySize=auto;html=1;endArrow=classic;strokeColor=#1976d2;strokeWidth=2;noEdgeStyle=1;orthogonal=1;" parent="1" source="node-32" target="node-11" edge="1">
                    <mxGeometry relative="1" as="geometry">
                        <Array as="points">
                            <mxPoint x="1114.0000000000002" y="515.0000000000003"/>
                            <mxPoint x="1073.2083333333335" y="589.0000000000005"/>
                        </Array>
                    </mxGeometry>
                </mxCell>
                <mxCell id="edge-25" style="edgeStyle=orthogonalEdgeStyle;rounded=0;orthogonalLoop=1;jettySize=auto;html=1;endArrow=classic;strokeColor=#1976d2;strokeWidth=2;noEdgeStyle=1;orthogonal=1;" parent="1" source="node-47" target="node-11" edge="1">
                    <mxGeometry relative="1" as="geometry">
                        <Array as="points">
                            <mxPoint x="1246" y="515.0000000000003"/>
                            <mxPoint x="1088.2083333333335" y="591.0000000000005"/>
                        </Array>
                    </mxGeometry>
                </mxCell>
                <mxCell id="edge-26" style="edgeStyle=orthogonalEdgeStyle;rounded=0;orthogonalLoop=1;jettySize=auto;html=1;endArrow=classic;strokeColor=#1976d2;strokeWidth=2;noEdgeStyle=1;orthogonal=1;" parent="1" source="node-33" target="node-12" edge="1">
                    <mxGeometry relative="1" as="geometry">
                        <Array as="points">
                            <mxPoint x="1514.4999999999993" y="314.0000000000002"/>
                            <mxPoint x="1642.5" y="384.0000000000002"/>
                        </Array>
                    </mxGeometry>
                </mxCell>
                <mxCell id="edge-27" style="edgeStyle=orthogonalEdgeStyle;rounded=0;orthogonalLoop=1;jettySize=auto;html=1;endArrow=classic;strokeColor=#1976d2;strokeWidth=2;noEdgeStyle=1;orthogonal=1;" parent="1" source="node-28" target="node-12" edge="1">
                    <mxGeometry relative="1" as="geometry">
                        <Array as="points">
                            <mxPoint x="422.9999999999998" y="314.0000000000002"/>
                            <mxPoint x="1622.5" y="388.0000000000002"/>
                        </Array>
                    </mxGeometry>
                </mxCell>
                <mxCell id="edge-28" style="edgeStyle=orthogonalEdgeStyle;rounded=0;orthogonalLoop=1;jettySize=auto;html=1;endArrow=classic;strokeColor=#1976d2;strokeWidth=2;noEdgeStyle=1;orthogonal=1;" parent="1" source="node-49" target="node-12" edge="1">
                    <mxGeometry relative="1" as="geometry">
                        <Array as="points">
                            <mxPoint x="1666.9999999999993" y="314.0000000000002"/>
                            <mxPoint x="1662.5" y="384.0000000000002"/>
                        </Array>
                    </mxGeometry>
                </mxCell>
                <mxCell id="edge-29" style="edgeStyle=orthogonalEdgeStyle;rounded=0;orthogonalLoop=1;jettySize=auto;html=1;endArrow=classic;strokeColor=#1976d2;strokeWidth=2;noEdgeStyle=1;orthogonal=1;" parent="1" source="node-50" target="node-12" edge="1">
                    <mxGeometry relative="1" as="geometry">
                        <Array as="points">
                            <mxPoint x="1826.749999999998" y="115.00000000000011"/>
                            <mxPoint x="1596.9999999999993" y="151.0000000000001"/>
                            <mxPoint x="1596.9999999999993" y="352.0000000000002"/>
                            <mxPoint x="1652.5" y="382.0000000000002"/>
                        </Array>
                    </mxGeometry>
                </mxCell>
                <mxCell id="edge-30" style="edgeStyle=orthogonalEdgeStyle;rounded=0;orthogonalLoop=1;jettySize=auto;html=1;endArrow=classic;strokeColor=#1976d2;strokeWidth=2;noEdgeStyle=1;orthogonal=1;" parent="1" source="node-52" target="node-12" edge="1">
                    <mxGeometry relative="1" as="geometry">
                        <Array as="points">
                            <mxPoint x="2134.749999999998" y="113.00000000000011"/>
                            <mxPoint x="2200.999999999999" y="151.0000000000001"/>
                            <mxPoint x="2200.999999999999" y="352.0000000000002"/>
                            <mxPoint x="1682.5" y="388.0000000000002"/>
                        </Array>
                    </mxGeometry>
                </mxCell>
                <mxCell id="edge-31" style="edgeStyle=orthogonalEdgeStyle;rounded=0;orthogonalLoop=1;jettySize=auto;html=1;endArrow=classic;strokeColor=#1976d2;strokeWidth=2;noEdgeStyle=1;orthogonal=1;" parent="1" source="node-54" target="node-12" edge="1">
                    <mxGeometry relative="1" as="geometry">
                        <Array as="points">
                            <mxPoint x="1776.9999999999993" y="314.0000000000002"/>
                            <mxPoint x="1672.5" y="386.0000000000002"/>
                        </Array>
                    </mxGeometry>
                </mxCell>
                <mxCell id="edge-32" style="edgeStyle=orthogonalEdgeStyle;rounded=0;orthogonalLoop=1;jettySize=auto;html=1;endArrow=classic;strokeColor=#1976d2;strokeWidth=2;noEdgeStyle=1;orthogonal=1;" parent="1" source="node-56" target="node-12" edge="1">
                    <mxGeometry relative="1" as="geometry">
                        <Array as="points">
                            <mxPoint x="2250.999999999999" y="113.00000000000011"/>
                            <mxPoint x="2230.999999999999" y="151.0000000000001"/>
                            <mxPoint x="2230.999999999999" y="352.0000000000002"/>
                            <mxPoint x="1692.5" y="390.0000000000002"/>
                        </Array>
                    </mxGeometry>
                </mxCell>
                <mxCell id="edge-33" style="edgeStyle=orthogonalEdgeStyle;rounded=0;orthogonalLoop=1;jettySize=auto;html=1;endArrow=classic;strokeColor=#1976d2;strokeWidth=2;noEdgeStyle=1;orthogonal=1;" parent="1" source="node-41" target="node-13" edge="1">
                    <mxGeometry relative="1" as="geometry">
                        <Array as="points">
                            <mxPoint x="1129.4999999999995" y="314.0000000000002"/>
                            <mxPoint x="1502.5" y="384.0000000000002"/>
                        </Array>
                    </mxGeometry>
                </mxCell>
                <mxCell id="edge-34" style="edgeStyle=orthogonalEdgeStyle;rounded=0;orthogonalLoop=1;jettySize=auto;html=1;endArrow=classic;strokeColor=#1976d2;strokeWidth=2;noEdgeStyle=1;orthogonal=1;" parent="1" source="node-45" target="node-13" edge="1">
                    <mxGeometry relative="1" as="geometry">
                        <Array as="points">
                            <mxPoint x="1270.9999999999998" y="314.0000000000002"/>
                            <mxPoint x="1522.5" y="388.0000000000002"/>
                        </Array>
                    </mxGeometry>
                </mxCell>
                <mxCell id="edge-35" style="edgeStyle=orthogonalEdgeStyle;rounded=0;orthogonalLoop=1;jettySize=auto;html=1;endArrow=classic;strokeColor=#1976d2;strokeWidth=2;noEdgeStyle=1;orthogonal=1;" parent="1" source="node-46" target="node-13" edge="1">
                    <mxGeometry relative="1" as="geometry">
                        <Array as="points">
                            <mxPoint x="2126.499999999999" y="314.0000000000002"/>
                            <mxPoint x="1532.5" y="390.0000000000002"/>
                        </Array>
                    </mxGeometry>
                </mxCell>
                <mxCell id="edge-36" style="edgeStyle=orthogonalEdgeStyle;rounded=0;orthogonalLoop=1;jettySize=auto;html=1;endArrow=classic;strokeColor=#1976d2;strokeWidth=2;noEdgeStyle=1;orthogonal=1;" parent="1" source="node-34" target="node-14" edge="1">
                    <mxGeometry relative="1" as="geometry">
                        <Array as="points">
                            <mxPoint x="622.9999999999998" y="314.0000000000002"/>
                            <mxPoint x="1342.5" y="388.0000000000002"/>
                        </Array>
                    </mxGeometry>
                </mxCell>
                <mxCell id="edge-37" style="edgeStyle=orthogonalEdgeStyle;rounded=0;orthogonalLoop=1;jettySize=auto;html=1;endArrow=classic;strokeColor=#1976d2;strokeWidth=2;noEdgeStyle=1;orthogonal=1;" parent="1" source="node-35" target="node-14" edge="1">
                    <mxGeometry relative="1" as="geometry">
                        <Array as="points">
                            <mxPoint x="792.9999999999998" y="314.0000000000002"/>
                            <mxPoint x="1372.5" y="386.0000000000002"/>
                        </Array>
                    </mxGeometry>
                </mxCell>
                <mxCell id="edge-38" style="edgeStyle=orthogonalEdgeStyle;rounded=0;orthogonalLoop=1;jettySize=auto;html=1;endArrow=classic;strokeColor=#1976d2;strokeWidth=2;noEdgeStyle=1;orthogonal=1;" parent="1" source="node-36" target="node-14" edge="1">
                    <mxGeometry relative="1" as="geometry">
                        <Array as="points">
                            <mxPoint x="434.25000000000057" y="113.00000000000011"/>
                            <mxPoint x="552.9999999999998" y="151.0000000000001"/>
                            <mxPoint x="552.9999999999998" y="352.0000000000002"/>
                            <mxPoint x="1332.5" y="390.0000000000002"/>
                        </Array>
                    </mxGeometry>
                </mxCell>
                <mxCell id="edge-39" style="edgeStyle=orthogonalEdgeStyle;rounded=0;orthogonalLoop=1;jettySize=auto;html=1;endArrow=classic;strokeColor=#1976d2;strokeWidth=2;noEdgeStyle=1;orthogonal=1;" parent="1" source="node-37" target="node-14" edge="1">
                    <mxGeometry relative="1" as="geometry">
                        <Array as="points">
                            <mxPoint x="648.2499999999999" y="113.00000000000011"/>
                            <mxPoint x="692.9999999999998" y="151.0000000000001"/>
                            <mxPoint x="692.9999999999998" y="352.0000000000002"/>
                            <mxPoint x="1352.5" y="386.0000000000002"/>
                        </Array>
                    </mxGeometry>
                </mxCell>
                <mxCell id="edge-40" style="edgeStyle=orthogonalEdgeStyle;rounded=0;orthogonalLoop=1;jettySize=auto;html=1;endArrow=classic;strokeColor=#1976d2;strokeWidth=2;noEdgeStyle=1;orthogonal=1;" parent="1" source="node-38" target="node-14" edge="1">
                    <mxGeometry relative="1" as="geometry">
                        <Array as="points">
                            <mxPoint x="746.2499999999997" y="113.00000000000011"/>
                            <mxPoint x="722.9999999999998" y="151.0000000000001"/>
                            <mxPoint x="722.9999999999998" y="352.0000000000002"/>
                            <mxPoint x="1362.5" y="384.0000000000002"/>
                        </Array>
                    </mxGeometry>
                </mxCell>
                <mxCell id="edge-41" style="edgeStyle=orthogonalEdgeStyle;rounded=0;orthogonalLoop=1;jettySize=auto;html=1;endArrow=classic;strokeColor=#1976d2;strokeWidth=2;noEdgeStyle=1;orthogonal=1;" parent="1" source="node-39" target="node-14" edge="1">
                    <mxGeometry relative="1" as="geometry">
                        <Array as="points">
                            <mxPoint x="936.9999999999993" y="113.00000000000011"/>
                            <mxPoint x="862.9999999999998" y="151.0000000000001"/>
                            <mxPoint x="862.9999999999998" y="352.0000000000002"/>
                            <mxPoint x="1382.5" y="388.0000000000002"/>
                        </Array>
                    </mxGeometry>
                </mxCell>
                <mxCell id="edge-42" style="edgeStyle=orthogonalEdgeStyle;rounded=0;orthogonalLoop=1;jettySize=auto;html=1;endArrow=classic;strokeColor=#1976d2;strokeWidth=2;noEdgeStyle=1;orthogonal=1;" parent="1" source="node-40" target="node-14" edge="1">
                    <mxGeometry relative="1" as="geometry">
                        <Array as="points">
                            <mxPoint x="1066.9999999999993" y="113.00000000000011"/>
                            <mxPoint x="892.9999999999998" y="151.0000000000001"/>
                            <mxPoint x="892.9999999999998" y="352.0000000000002"/>
                            <mxPoint x="1392.5" y="390.0000000000002"/>
                        </Array>
                    </mxGeometry>
                </mxCell>
                <mxCell id="edge-43" style="edgeStyle=orthogonalEdgeStyle;rounded=0;orthogonalLoop=1;jettySize=auto;html=1;endArrow=classic;strokeColor=#1976d2;strokeWidth=2;noEdgeStyle=1;orthogonal=1;" parent="1" source="node-44" target="node-15" edge="1">
                    <mxGeometry relative="1" as="geometry">
                        <Array as="points">
                            <mxPoint x="1725.499999999998" y="113.00000000000011"/>
                            <mxPoint x="1386.4999999999995" y="189.0000000000001"/>
                        </Array>
                    </mxGeometry>
                </mxCell>
                <mxCell id="edge-44" style="edgeStyle=orthogonalEdgeStyle;rounded=0;orthogonalLoop=1;jettySize=auto;html=1;endArrow=classic;strokeColor=#1976d2;strokeWidth=2;noEdgeStyle=1;orthogonal=1;" parent="1" source="node-51" target="node-16" edge="1">
                    <mxGeometry relative="1" as="geometry">
                        <Array as="points">
                            <mxPoint x="1957.999999999998" y="113.00000000000011"/>
                            <mxPoint x="2011.999999999999" y="189.0000000000001"/>
                        </Array>
                    </mxGeometry>
                </mxCell>
                <mxCell id="edge-45" style="edgeStyle=orthogonalEdgeStyle;rounded=0;orthogonalLoop=1;jettySize=auto;html=1;endArrow=classic;strokeColor=#1976d2;strokeWidth=2;noEdgeStyle=1;orthogonal=1;" parent="1" source="node-18" target="node-8" edge="1">
                    <mxGeometry relative="1" as="geometry">
                        <Array as="points">
                            <mxPoint x="340.5000000000002" y="515.0000000000003"/>
                            <mxPoint x="562.3607956372172" y="553.0000000000005"/>
                            <mxPoint x="562.3607956372172" y="754.0000000000006"/>
                            <mxPoint x="725.1756630310142" y="792.0000000000006"/>
                        </Array>
                    </mxGeometry>
                </mxCell>
                <mxCell id="edge-46" style="edgeStyle=orthogonalEdgeStyle;rounded=0;orthogonalLoop=1;jettySize=auto;html=1;endArrow=classic;strokeColor=#1976d2;strokeWidth=2;noEdgeStyle=1;orthogonal=1;" parent="1" source="node-19" target="node-8" edge="1">
                    <mxGeometry relative="1" as="geometry">
                        <Array as="points">
                            <mxPoint x="467.7500000000002" y="515.0000000000003"/>
                            <mxPoint x="629.6107956372172" y="553.0000000000005"/>
                            <mxPoint x="629.6107956372172" y="754.0000000000006"/>
                            <mxPoint x="744.1756630310142" y="790.0000000000006"/>
                        </Array>
                    </mxGeometry>
                </mxCell>
                <mxCell id="edge-47" style="edgeStyle=orthogonalEdgeStyle;rounded=0;orthogonalLoop=1;jettySize=auto;html=1;endArrow=classic;strokeColor=#1976d2;strokeWidth=2;noEdgeStyle=1;orthogonal=1;" parent="1" source="node-20" target="node-8" edge="1">
                    <mxGeometry relative="1" as="geometry">
                        <Array as="points">
                            <mxPoint x="683.2500000000001" y="515.0000000000003"/>
                            <mxPoint x="769.6107956372172" y="553.0000000000005"/>
                            <mxPoint x="769.6107956372172" y="754.0000000000006"/>
                            <mxPoint x="782.1756630310142" y="790.0000000000006"/>
                        </Array>
                    </mxGeometry>
                </mxCell>
                <mxCell id="edge-48" style="edgeStyle=orthogonalEdgeStyle;rounded=0;orthogonalLoop=1;jettySize=auto;html=1;endArrow=classic;strokeColor=#1976d2;strokeWidth=2;noEdgeStyle=1;orthogonal=1;" parent="1" source="node-22" target="node-11" edge="1">
                    <mxGeometry relative="1" as="geometry">
                        <Array as="points">
                            <mxPoint x="54.7500000000001" y="314.0000000000002"/>
                            <mxPoint x="903.5000000000006" y="352.0000000000002"/>
                            <mxPoint x="903.5000000000006" y="553.0000000000005"/>
                            <mxPoint x="1043.2083333333335" y="587.0000000000005"/>
                        </Array>
                    </mxGeometry>
                </mxCell>
                <mxCell id="edge-49" style="edgeStyle=orthogonalEdgeStyle;rounded=0;orthogonalLoop=1;jettySize=auto;html=1;endArrow=classic;strokeColor=#1976d2;strokeWidth=2;noEdgeStyle=1;orthogonal=1;" parent="1" source="node-23" target="node-12" edge="1">
                    <mxGeometry relative="1" as="geometry">
                        <Array as="points">
                            <mxPoint x="208.75000000000023" y="314.0000000000002"/>
                            <mxPoint x="1612.5" y="390.0000000000002"/>
                        </Array>
                    </mxGeometry>
                </mxCell>
                <mxCell id="edge-50" style="edgeStyle=orthogonalEdgeStyle;rounded=0;orthogonalLoop=1;jettySize=auto;html=1;endArrow=classic;strokeColor=#1976d2;strokeWidth=2;noEdgeStyle=1;orthogonal=1;" parent="1" source="node-24" target="node-13" edge="1">
                    <mxGeometry relative="1" as="geometry">
                        <Array as="points">
                            <mxPoint x="327.7499999999999" y="314.0000000000002"/>
                            <mxPoint x="1472.5" y="390.0000000000002"/>
                        </Array>
                    </mxGeometry>
                </mxCell>
                <mxCell id="edge-51" style="edgeStyle=orthogonalEdgeStyle;rounded=0;orthogonalLoop=1;jettySize=auto;html=1;endArrow=classic;strokeColor=#1976d2;strokeWidth=2;noEdgeStyle=1;orthogonal=1;" parent="1" source="node-29" target="node-11" edge="1">
                    <mxGeometry relative="1" as="geometry">
                        <Array as="points">
                            <mxPoint x="19.7500000000001" y="113.00000000000011"/>
                            <mxPoint y="151.0000000000001"/>
                            <mxPoint y="352.0000000000002"/>
                            <mxPoint x="749.5000000000001" y="352.0000000000002"/>
                            <mxPoint x="749.5000000000001" y="553.0000000000005"/>
                            <mxPoint x="1013.2083333333335" y="591.0000000000005"/>
                        </Array>
                    </mxGeometry>
                </mxCell>
                <mxCell id="edge-52" style="edgeStyle=orthogonalEdgeStyle;rounded=0;orthogonalLoop=1;jettySize=auto;html=1;endArrow=classic;strokeColor=#1976d2;strokeWidth=2;noEdgeStyle=1;orthogonal=1;" parent="1" source="node-30" target="node-12" edge="1">
                    <mxGeometry relative="1" as="geometry">
                        <Array as="points">
                            <mxPoint x="239.00000000000068" y="113.00000000000011"/>
                            <mxPoint x="492.9999999999998" y="151.0000000000001"/>
                            <mxPoint x="492.9999999999998" y="352.0000000000002"/>
                            <mxPoint x="1632.5" y="386.0000000000002"/>
                        </Array>
                    </mxGeometry>
                </mxCell>
                <mxCell id="edge-53" style="edgeStyle=orthogonalEdgeStyle;rounded=0;orthogonalLoop=1;jettySize=auto;html=1;endArrow=classic;strokeColor=#1976d2;strokeWidth=2;noEdgeStyle=1;orthogonal=1;" parent="1" source="node-31" target="node-13" edge="1">
                    <mxGeometry relative="1" as="geometry">
                        <Array as="points">
                            <mxPoint x="349.0000000000007" y="113.00000000000011"/>
                            <mxPoint x="522.9999999999998" y="151.0000000000001"/>
                            <mxPoint x="522.9999999999998" y="352.0000000000002"/>
                            <mxPoint x="1482.5" y="388.0000000000002"/>
                        </Array>
                    </mxGeometry>
                </mxCell>
                <mxCell id="edge-54" style="edgeStyle=orthogonalEdgeStyle;rounded=0;orthogonalLoop=1;jettySize=auto;html=1;endArrow=classic;strokeColor=#1976d2;strokeWidth=2;noEdgeStyle=1;orthogonal=1;" parent="1" source="node-42" target="node-13" edge="1">
                    <mxGeometry relative="1" as="geometry">
                        <Array as="points">
                            <mxPoint x="1399.249999999999" y="113.00000000000011"/>
                            <mxPoint x="1057.9999999999998" y="151.0000000000001"/>
                            <mxPoint x="1057.9999999999998" y="352.0000000000002"/>
                            <mxPoint x="1492.5" y="386.0000000000002"/>
                        </Array>
                    </mxGeometry>
                </mxCell>
                <mxCell id="edge-55" style="edgeStyle=orthogonalEdgeStyle;rounded=0;orthogonalLoop=1;jettySize=auto;html=1;endArrow=classic;strokeColor=#1976d2;strokeWidth=2;noEdgeStyle=1;orthogonal=1;" parent="1" source="node-43" target="node-13" edge="1">
                    <mxGeometry relative="1" as="geometry">
                        <Array as="points">
                            <mxPoint x="1617.749999999998" y="113.00000000000011"/>
                            <mxPoint x="1200.9999999999998" y="151.0000000000001"/>
                            <mxPoint x="1200.9999999999998" y="352.0000000000002"/>
                            <mxPoint x="1512.5" y="386.0000000000002"/>
                        </Array>
                    </mxGeometry>
                </mxCell>
                <mxCell id="edge-56" style="edgeStyle=orthogonalEdgeStyle;rounded=0;orthogonalLoop=1;jettySize=auto;html=1;endArrow=classic;strokeColor=#757575;strokeWidth=1;dashed=1;noEdgeStyle=1;orthogonal=1;" parent="1" source="node-18" target="node-17" edge="1">
                    <mxGeometry relative="1" as="geometry">
                        <Array as="points">
                            <mxPoint x="380.5000000000002" y="515.0000000000003"/>
                            <mxPoint x="673.3607956372172" y="591.0000000000005"/>
                        </Array>
                    </mxGeometry>
                </mxCell>
                <mxCell id="edge-57" style="edgeStyle=orthogonalEdgeStyle;rounded=0;orthogonalLoop=1;jettySize=auto;html=1;endArrow=classic;strokeColor=#757575;strokeWidth=1;dashed=1;noEdgeStyle=1;orthogonal=1;" parent="1" source="node-19" target="node-17" edge="1">
                    <mxGeometry relative="1" as="geometry">
                        <Array as="points">
                            <mxPoint x="522.2500000000002" y="515.0000000000003"/>
                            <mxPoint x="690.8607956372172" y="589.0000000000005"/>
                        </Array>
                    </mxGeometry>
                </mxCell>
                <mxCell id="edge-58" style="edgeStyle=orthogonalEdgeStyle;rounded=0;orthogonalLoop=1;jettySize=auto;html=1;endArrow=classic;strokeColor=#757575;strokeWidth=1;dashed=1;noEdgeStyle=1;orthogonal=1;" parent="1" source="node-20" target="node-17" edge="1">
                    <mxGeometry relative="1" as="geometry">
                        <Array as="points">
                            <mxPoint x="620.7500000000001" y="515.0000000000003"/>
                            <mxPoint x="708.3607956372172" y="589.0000000000005"/>
                        </Array>
                    </mxGeometry>
                </mxCell>
                <mxCell id="edge-59" style="edgeStyle=orthogonalEdgeStyle;rounded=0;orthogonalLoop=1;jettySize=auto;html=1;endArrow=classic;strokeColor=#757575;strokeWidth=1;dashed=1;noEdgeStyle=1;orthogonal=1;" parent="1" source="node-22" target="node-21" edge="1">
                    <mxGeometry relative="1" as="geometry">
                        <Array as="points">
                            <mxPoint x="94.2500000000003" y="314.0000000000002"/>
                            <mxPoint x="952.6666666666672" y="390.0000000000002"/>
                        </Array>
                    </mxGeometry>
                </mxCell>
                <mxCell id="edge-60" style="edgeStyle=orthogonalEdgeStyle;rounded=0;orthogonalLoop=1;jettySize=auto;html=1;endArrow=classic;strokeColor=#757575;strokeWidth=1;dashed=1;noEdgeStyle=1;orthogonal=1;" parent="1" source="node-23" target="node-21" edge="1">
                    <mxGeometry relative="1" as="geometry">
                        <Array as="points">
                            <mxPoint x="172.25000000000034" y="314.0000000000002"/>
                            <mxPoint x="981.0000000000005" y="388.0000000000002"/>
                        </Array>
                    </mxGeometry>
                </mxCell>
                <mxCell id="edge-61" style="edgeStyle=orthogonalEdgeStyle;rounded=0;orthogonalLoop=1;jettySize=auto;html=1;endArrow=classic;strokeColor=#757575;strokeWidth=1;dashed=1;noEdgeStyle=1;orthogonal=1;" parent="1" source="node-24" target="node-21" edge="1">
                    <mxGeometry relative="1" as="geometry">
                        <Array as="points">
                            <mxPoint x="287.2500000000001" y="314.0000000000002"/>
                            <mxPoint x="1009.3333333333337" y="390.0000000000002"/>
                        </Array>
                    </mxGeometry>
                </mxCell>
                <mxCell id="edge-62" style="edgeStyle=orthogonalEdgeStyle;rounded=0;orthogonalLoop=1;jettySize=auto;html=1;endArrow=classic;strokeColor=#757575;strokeWidth=1;dashed=1;noEdgeStyle=1;orthogonal=1;" parent="1" source="node-42" target="node-41" edge="1">
                    <mxGeometry relative="1" as="geometry">
                        <Array as="points">
                            <mxPoint x="1452.7499999999986" y="113.00000000000011"/>
                            <mxPoint x="1105.1666666666665" y="189.0000000000001"/>
                        </Array>
                    </mxGeometry>
                </mxCell>
                <mxCell id="edge-63" style="edgeStyle=orthogonalEdgeStyle;rounded=0;orthogonalLoop=1;jettySize=auto;html=1;endArrow=classic;strokeColor=#757575;strokeWidth=1;dashed=1;noEdgeStyle=1;orthogonal=1;" parent="1" source="node-43" target="node-41" edge="1">
                    <mxGeometry relative="1" as="geometry">
                        <Array as="points">
                            <mxPoint x="1552.2499999999982" y="113.00000000000011"/>
                            <mxPoint x="1129.4999999999998" y="187.0000000000001"/>
                        </Array>
                    </mxGeometry>
                </mxCell>
                <mxCell id="edge-64" style="edgeStyle=orthogonalEdgeStyle;rounded=0;orthogonalLoop=1;jettySize=auto;html=1;endArrow=classic;strokeColor=#757575;strokeWidth=1;dashed=1;noEdgeStyle=1;orthogonal=1;" parent="1" source="node-50" target="node-49" edge="1">
                    <mxGeometry relative="1" as="geometry">
                        <Array as="points">
                            <mxPoint x="1844.249999999998" y="115.00000000000011"/>
                            <mxPoint x="1666.9999999999993" y="189.0000000000001"/>
                        </Array>
                    </mxGeometry>
                </mxCell>
                <mxCell id="edge-65" style="edgeStyle=orthogonalEdgeStyle;rounded=0;orthogonalLoop=1;jettySize=auto;html=1;endArrow=classic;strokeColor=#757575;strokeWidth=1;dashed=1;noEdgeStyle=1;orthogonal=1;" parent="1" source="node-36" target="node-34" edge="1">
                    <mxGeometry relative="1" as="geometry">
                        <Array as="points">
                            <mxPoint x="489.75000000000034" y="113.00000000000011"/>
                            <mxPoint x="599.6666666666664" y="189.0000000000001"/>
                        </Array>
                    </mxGeometry>
                </mxCell>
                <mxCell id="edge-66" style="edgeStyle=orthogonalEdgeStyle;rounded=0;orthogonalLoop=1;jettySize=auto;html=1;endArrow=classic;strokeColor=#757575;strokeWidth=1;dashed=1;noEdgeStyle=1;orthogonal=1;" parent="1" source="node-37" target="node-34" edge="1">
                    <mxGeometry relative="1" as="geometry">
                        <Array as="points">
                            <mxPoint x="587.7500000000001" y="113.00000000000011"/>
                            <mxPoint x="622.9999999999998" y="187.0000000000001"/>
                        </Array>
                    </mxGeometry>
                </mxCell>
                <mxCell id="edge-67" style="edgeStyle=orthogonalEdgeStyle;rounded=0;orthogonalLoop=1;jettySize=auto;html=1;endArrow=classic;strokeColor=#757575;strokeWidth=1;dashed=1;noEdgeStyle=1;orthogonal=1;" parent="1" source="node-38" target="node-35" edge="1">
                    <mxGeometry relative="1" as="geometry">
                        <Array as="points">
                            <mxPoint x="801.7499999999994" y="113.00000000000011"/>
                            <mxPoint x="775.4999999999998" y="189.0000000000001"/>
                        </Array>
                    </mxGeometry>
                </mxCell>
                <mxCell id="edge-68" style="edgeStyle=orthogonalEdgeStyle;rounded=0;orthogonalLoop=1;jettySize=auto;html=1;endArrow=classic;strokeColor=#757575;strokeWidth=1;dashed=1;noEdgeStyle=1;orthogonal=1;" parent="1" source="node-39" target="node-34" edge="1">
                    <mxGeometry relative="1" as="geometry">
                        <Array as="points">
                            <mxPoint x="891.9999999999993" y="113.00000000000011"/>
                            <mxPoint x="646.3333333333331" y="189.0000000000001"/>
                        </Array>
                    </mxGeometry>
                </mxCell>
                <mxCell id="edge-69" style="edgeStyle=orthogonalEdgeStyle;rounded=0;orthogonalLoop=1;jettySize=auto;html=1;endArrow=classic;strokeColor=#757575;strokeWidth=1;dashed=1;noEdgeStyle=1;orthogonal=1;" parent="1" source="node-40" target="node-35" edge="1">
                    <mxGeometry relative="1" as="geometry">
                        <Array as="points">
                            <mxPoint x="1021.9999999999993" y="113.00000000000011"/>
                            <mxPoint x="810.4999999999998" y="189.0000000000001"/>
                        </Array>
                    </mxGeometry>
                </mxCell>
                <mxCell id="edge-70" style="edgeStyle=orthogonalEdgeStyle;rounded=0;orthogonalLoop=1;jettySize=auto;html=1;endArrow=classic;strokeColor=#757575;strokeWidth=1;dashed=1;noEdgeStyle=1;orthogonal=1;" parent="1" source="node-29" target="node-22" edge="1">
                    <mxGeometry relative="1" as="geometry">
                        <Array as="points">
                            <mxPoint x="54.7500000000001" y="113.00000000000011"/>
                            <mxPoint x="74.5000000000002" y="189.0000000000001"/>
                        </Array>
                    </mxGeometry>
                </mxCell>
                <mxCell id="edge-71" style="edgeStyle=orthogonalEdgeStyle;rounded=0;orthogonalLoop=1;jettySize=auto;html=1;endArrow=classic;strokeColor=#757575;strokeWidth=1;dashed=1;noEdgeStyle=1;orthogonal=1;" parent="1" source="node-30" target="node-23" edge="1">
                    <mxGeometry relative="1" as="geometry">
                        <Array as="points">
                            <mxPoint x="204.00000000000068" y="113.00000000000011"/>
                            <mxPoint x="190.50000000000028" y="189.0000000000001"/>
                        </Array>
                    </mxGeometry>
                </mxCell>
                <mxCell id="edge-72" style="edgeStyle=orthogonalEdgeStyle;rounded=0;orthogonalLoop=1;jettySize=auto;html=1;endArrow=classic;strokeColor=#757575;strokeWidth=1;dashed=1;noEdgeStyle=1;orthogonal=1;" parent="1" source="node-31" target="node-24" edge="1">
                    <mxGeometry relative="1" as="geometry">
                        <Array as="points">
                            <mxPoint x="314.0000000000007" y="113.00000000000011"/>
                            <mxPoint x="307.5" y="189.0000000000001"/>
                        </Array>
                    </mxGeometry>
                </mxCell>
                <mxCell id="edge-73" style="edgeStyle=orthogonalEdgeStyle;rounded=0;orthogonalLoop=1;jettySize=auto;html=1;endArrow=classic;strokeColor=#757575;strokeWidth=1;dashed=1;noEdgeStyle=1;orthogonal=1;" parent="1" source="node-50" target="node-41" edge="1">
                    <mxGeometry relative="1" as="geometry">
                        <Array as="points">
                            <mxPoint x="1809.249999999998" y="113.00000000000011"/>
                            <mxPoint x="1153.833333333333" y="189.0000000000001"/>
                        </Array>
                    </mxGeometry>
                </mxCell>
                <mxCell id="edge-74" style="edgeStyle=orthogonalEdgeStyle;rounded=0;orthogonalLoop=1;jettySize=auto;html=1;endArrow=classic;strokeColor=#757575;strokeWidth=1;dashed=1;noEdgeStyle=1;orthogonal=1;" parent="1" source="node-50" target="node-54" edge="1">
                    <mxGeometry relative="1" as="geometry">
                        <Array as="points">
                            <mxPoint x="1861.749999999998" y="113.00000000000011"/>
                            <mxPoint x="1776.9999999999993" y="189.0000000000001"/>
                        </Array>
                    </mxGeometry>
                </mxCell>
                <mxCell id="edge-75" style="edgeStyle=orthogonalEdgeStyle;rounded=0;orthogonalLoop=1;jettySize=auto;html=1;endArrow=classic;strokeColor=#757575;strokeWidth=1;dashed=1;noEdgeStyle=1;orthogonal=1;" parent="1" source="node-52" target="node-46" edge="1">
                    <mxGeometry relative="1" as="geometry">
                        <Array as="points">
                            <mxPoint x="2075.249999999998" y="113.00000000000011"/>
                            <mxPoint x="2126.499999999999" y="189.0000000000001"/>
                        </Array>
                    </mxGeometry>
                </mxCell>
                <mxCell id="edge-76" style="edgeStyle=orthogonalEdgeStyle;rounded=0;orthogonalLoop=1;jettySize=auto;html=1;endArrow=classic;strokeColor=#757575;strokeWidth=1;dashed=1;noEdgeStyle=1;orthogonal=1;" parent="1" source="node-21" target="node-17" edge="1">
                    <mxGeometry relative="1" as="geometry">
                        <Array as="points">
                            <mxPoint x="959.7500000000006" y="515.0000000000003"/>
                            <mxPoint x="725.8607956372172" y="591.0000000000005"/>
                        </Array>
                    </mxGeometry>
                </mxCell>
                <mxCell id="edge-77" style="edgeStyle=orthogonalEdgeStyle;rounded=0;orthogonalLoop=1;jettySize=auto;html=1;endArrow=classic;strokeColor=#757575;strokeWidth=1;dashed=1;noEdgeStyle=1;orthogonal=1;" parent="1" source="node-56" target="node-55" edge="1">
                    <mxGeometry relative="1" as="geometry">
                        <Array as="points">
                            <mxPoint x="2286.499999999999" y="113.00000000000011"/>
                            <mxPoint x="2306.499999999999" y="189.0000000000001"/>
                        </Array>
                    </mxGeometry>
                </mxCell>
            </root>
        </mxGraphModel>
    </diagram>
</mxfile>